# WaveFront *.obj file (generated by Autodesk ATF)

mtllib TopPanel.mtl

g Top

v 16.875000 16.375000 13.000000
v 1.125000 16.375000 13.000000
v 1.125000 0.625000 13.000000
v 16.875000 0.625000 13.000000
v 14.625000 9.625000 13.000000
v 14.625000 7.375000 13.000000
v 3.375000 7.375000 13.000000
v 3.375000 9.625000 13.000000
v 1.125000 0.625000 12.000000
v 16.875000 0.625000 12.000000
v 3.375000 9.625000 12.000000
v 14.625000 9.625000 12.000000
v 3.375000 7.375000 12.000000
v 14.625000 7.375000 12.000000
v 16.875000 16.375000 12.000000
v 1.125000 16.375000 12.000000
vt 20.002500 -20.002500 0.000000
vt 20.002500 20.002500 0.000000
vt 14.287500 2.857500 0.000000
vt -20.002500 20.002500 0.000000
vt -14.287500 2.857500 0.000000
vt -20.002500 -20.002500 0.000000
vt -14.287500 -2.857500 0.000000
vt 14.287500 -2.857500 0.000000
vt 2.857500 0.000000 0.000000
vt 42.862500 0.000000 0.000000
vt 2.857500 2.540000 0.000000
vt 42.862500 2.540000 0.000000
vt 0.000000 0.000000 0.000000
vt 28.575000 0.000000 0.000000
vt 0.000000 2.540000 0.000000
vt 28.575000 2.540000 0.000000
vt 0.000000 0.000000 0.000000
vt 5.715000 0.000000 0.000000
vt 0.000000 2.540000 0.000000
vt 5.715000 2.540000 0.000000
vt 0.000000 0.000000 0.000000
vt 28.575000 0.000000 0.000000
vt 0.000000 2.540000 0.000000
vt 28.575000 2.540000 0.000000
vt -0.000000 0.000000 0.000000
vt 5.715000 0.000000 0.000000
vt -0.000000 2.540000 0.000000
vt 5.715000 2.540000 0.000000
vt 42.862500 2.540000 0.000000
vt 2.857500 2.540000 0.000000
vt 42.862500 0.000000 0.000000
vt 2.857500 0.000000 0.000000
vt -0.000000 0.000000 0.000000
vt 40.005000 0.000000 0.000000
vt -0.000000 2.540000 0.000000
vt 40.005000 2.540000 0.000000
vt 2.857500 -0.000000 0.000000
vt 42.862500 -0.000000 0.000000
vt 2.857500 2.540000 0.000000
vt 42.862500 2.540000 0.000000
vt -20.002500 -20.002500 0.000000
vt -14.287500 2.857500 0.000000
vt -20.002500 20.002500 0.000000
vt 14.287500 2.857500 0.000000
vt 20.002500 20.002500 0.000000
vt 20.002500 -20.002500 0.000000
vt 14.287500 -2.857500 0.000000
vt -14.287500 -2.857500 0.000000
vn 0.000000 0.000000 2.540000
vn 0.000000 0.000000 2.540000
vn 0.000000 0.000000 2.540000
vn 0.000000 0.000000 2.540000
vn 0.000000 0.000000 2.540000
vn 0.000000 0.000000 2.540000
vn 0.000000 0.000000 2.540000
vn 0.000000 0.000000 2.540000
vn 0.000000 -2.540000 0.000000
vn 0.000000 -2.540000 0.000000
vn 0.000000 -2.540000 0.000000
vn 0.000000 -2.540000 0.000000
vn 0.000000 -2.540000 0.000000
vn 0.000000 -2.540000 0.000000
vn 0.000000 -2.540000 0.000000
vn 0.000000 -2.540000 0.000000
vn 2.540000 0.000000 0.000000
vn 2.540000 0.000000 0.000000
vn 2.540000 0.000000 0.000000
vn 2.540000 0.000000 0.000000
vn 0.000000 2.540000 0.000000
vn 0.000000 2.540000 0.000000
vn 0.000000 2.540000 0.000000
vn 0.000000 2.540000 0.000000
vn -2.540000 0.000000 0.000000
vn -2.540000 0.000000 0.000000
vn -2.540000 0.000000 0.000000
vn -2.540000 0.000000 0.000000
vn 2.540000 0.000000 0.000000
vn 2.540000 0.000000 0.000000
vn 2.540000 0.000000 0.000000
vn 2.540000 0.000000 0.000000
vn -2.540000 0.000000 0.000000
vn -2.540000 0.000000 0.000000
vn -2.540000 0.000000 0.000000
vn -2.540000 0.000000 0.000000
vn 0.000000 2.540000 0.000000
vn 0.000000 2.540000 0.000000
vn 0.000000 2.540000 0.000000
vn 0.000000 2.540000 0.000000
vn 0.000000 0.000000 -2.540000
vn 0.000000 0.000000 -2.540000
vn 0.000000 0.000000 -2.540000
vn 0.000000 0.000000 -2.540000
vn 0.000000 0.000000 -2.540000
vn 0.000000 0.000000 -2.540000
vn 0.000000 0.000000 -2.540000
vn 0.000000 0.000000 -2.540000
usemtl Cherry
f 4/1/1 1/2/2 5/3/3
f 5/3/3 1/2/2 2/4/4
f 5/3/3 2/4/4 8/5/5
f 8/5/5 2/4/4 3/6/6
f 8/5/5 3/6/6 7/7/7
f 7/7/7 3/6/6 4/1/1
f 7/7/7 4/1/1 6/8/8
f 6/8/8 4/1/1 5/3/3
usemtl Mahogany
f 9/9/9 10/10/10 3/11/11
f 3/11/11 10/10/10 4/12/12
usemtl Paint_-_Metal_Flake_(Black)
f 11/13/13 12/14/14 8/15/15
f 8/15/15 12/14/14 5/16/16
f 13/17/17 11/18/18 7/19/19
f 7/19/19 11/18/18 8/20/20
f 14/21/21 13/22/22 6/23/23
f 6/23/23 13/22/22 7/24/24
f 12/25/25 14/26/26 5/27/27
f 5/27/27 14/26/26 6/28/28
usemtl Mahogany
f 1/29/29 4/30/30 15/31/31
f 15/31/31 4/30/30 10/32/32
f 16/33/33 9/34/34 2/35/35
f 2/35/35 9/34/34 3/36/36
f 15/37/37 16/38/38 1/39/39
f 1/39/39 16/38/38 2/40/40
f 10/41/41 12/42/42 15/43/43
f 15/43/43 12/42/42 11/44/44
f 15/43/43 11/44/44 16/45/45
f 16/45/45 11/44/44 9/46/46
f 9/46/46 11/44/44 13/47/47
f 9/46/46 13/47/47 14/48/48
f 12/42/42 10/41/41 14/48/48
f 14/48/48 10/41/41 9/46/46
# 16 vertices
# 48 texture params
# 48 normals
# 32 facets

# 1 groups
